<svg xmlns="http://www.w3.org/2000/svg" xmlns:xlink="http://www.w3.org/1999/xlink" version="1.1" x="0px" y="0px" viewBox="0 0 100 125" enable-background="new 0 0 100 100" xml:space="preserve"><g><path fill="#000000" d="M48.657,62.564c2.791-0.014,3.893-1.704,4.314-2.805c0.081-0.308,0.164-0.608,0.247-0.904   c0.001-0.014,0.004-0.021,0.004-0.021v0.01c6.018-21.082,21.115-12.25,21.115-12.25c-2.801-6.958,3.117-10.039,3.117-10.039   l1.445-3.997l2.791,4.199c2-0.974,5.241,0.182,5.241,0.182l2.242-3.504l1.061,4.783c2.758,5.111-0.747,9.737-1.234,10.588   c-0.487,0.852-0.363,1.062-0.363,1.062c7.483,19.592-13.725,17.511-13.725,17.511s-61.076,0-62.799,0s-3.664,0.084-3.367-2.375   c0.299-2.486,3.367-2.207,3.367-2.207L48.657,62.564z"/></g><text x="0" y="115" fill="#000000" font-size="5px" font-weight="bold" font-family="'Helvetica Neue', Helvetica, Arial-Unicode, Arial, Sans-serif">Created by Reyda Dönmez</text><text x="0" y="120" fill="#000000" font-size="5px" font-weight="bold" font-family="'Helvetica Neue', Helvetica, Arial-Unicode, Arial, Sans-serif">from the Noun Project</text></svg>