<?xml version="1.0" encoding="utf-8"?>
<!-- Generator: Adobe Illustrator 27.5.0, SVG Export Plug-In . SVG Version: 6.00 Build 0)  -->
<svg version="1.1" xmlns="http://www.w3.org/2000/svg" xmlns:xlink="http://www.w3.org/1999/xlink" x="0px" y="0px"
	 viewBox="0 0 500 500" style="enable-background:new 0 0 500 500;" xml:space="preserve">
<g id="BACKGROUND">
	<rect style="fill:#FCFCFC;" width="500" height="500"/>
</g>
<g id="OBJECTS">
	<g>
		<path d="M452.921,178.979c-2.602-4.942-7.153-16.387-9.884-20.419c-2.731-4.032,1.04-7.543,1.431-22.499
			c0.39-14.957-8.78-25.361-10.47-27.442c-1.691-2.081-5.918-27.702-10.079-45.909c-4.161-18.208-1.691-21.459,0.52-22.37
			c2.212-0.911,4.942,4.682,5.593,10.404c0.649,5.722,6.242,6.763,10.274,4.682c4.032-2.081,1.301-13.656,1.301-13.656
			c-3.516-13.161-16.959-20.906-29.49-13.369c-8.705,5.236-8.328,17.101-8.332,26.044c-0.004,8.949,5.716,40.848,6.814,48.002
			c1.392,9.079-9.852,8.1-17.108,9.811c-11.578,2.732-21.333,6.634-28.486,10.146c-7.152,3.512-25.165,5.917-28.677,5.268
			c-3.512-0.651-5.918-3.057-5.918-3.057c0.521-2.275-2.471-5.332-2.471-5.332s-0.455-1.626-0.584-4.487
			c-0.131-2.862-2.017-4.552-2.017-4.552c-3.706-3.381-6.373-0.26-7.283,0.78c-0.911,1.041-3.057,2.276-5.007,2.731
			c-1.951,0.455-7.349,0.52-8.714,0c-1.365-0.52-6.632-0.585-6.632-0.585c-0.781-0.586-2.05-0.391-3.025-0.342
			c-0.976,0.049-4.097,0.049-5.364-0.098c-1.268-0.146-10.096-3.316-11.998-3.365c-1.901-0.049,1.854,5.608,2.634,6.877
			c0.78,1.268,3.658,5.267,3.658,5.267c0.537,2.244,3.121,4.438,2.877,5.023c-0.024,0.061-0.06,0.181-0.101,0.349
			c-1.121-1.168-2.331-2.242-3.564-3.192c-3.311-2.55-7.102-4.345-11.238-5.039c-0.103-0.017-0.147,0.14-0.043,0.159
			c3.899,0.714,7.51,2.383,10.684,4.74c1.522,1.129,2.845,2.406,4.059,3.78c-0.088,0.406-0.192,0.942-0.306,1.565
			c-1.098-0.874-2.264-1.66-3.558-2.217c-0.066-0.029-0.127,0.064-0.059,0.1c1.267,0.68,2.452,1.437,3.582,2.307
			c-0.037,0.198-0.073,0.405-0.109,0.618c-0.135-0.063-0.265-0.134-0.404-0.19c-2.365-0.962-5.122-0.846-7.624-0.881
			c-0.061,0-0.061,0.094,0,0.095c2.339,0.046,4.744,0.02,7.003,0.711c0.352,0.107,0.685,0.239,1.004,0.388
			c-0.122,0.707-0.248,1.484-0.37,2.29c-5.423-0.422-11.567,0.995-15.687,4.608c-0.062,0.055,0.023,0.166,0.089,0.115
			c4.309-3.306,10.146-4.776,15.571-4.529c-0.022,0.146-0.044,0.293-0.065,0.441c-1.7,0.183-3.379,0.638-4.659,1.836
			c-0.049,0.045,0.016,0.134,0.071,0.094c1.373-1.007,2.916-1.471,4.552-1.68c-0.201,1.41-0.378,2.855-0.485,4.115
			c-0.341,4.048,2.828,7.511,3.609,8.6c0.404,0.564,0.271,1.485,0.151,2.688c-5.142-0.382-10.902,0.862-14.824,4.325
			c-0.05,0.045,0.017,0.133,0.072,0.094c4.266-3.034,9.518-4.405,14.726-4.157c-0.049,0.538-0.087,1.129-0.072,1.766
			c-3.28-0.2-6.745,0.91-9.368,2.843c-0.098,0.072-0.016,0.215,0.097,0.164c2.977-1.376,5.96-2.814,9.277-2.756
			c0.016,0.317,0.047,0.647,0.096,0.985c-8.379,1.183-16.795,6.814-20.414,14.525c-0.043,0.091,0.085,0.169,0.137,0.079
			c4.268-7.42,11.829-12.937,20.298-14.451c0.031,0.2,0.07,0.403,0.117,0.61c0.034,0.148,0.076,0.288,0.122,0.424
			c-3.37,1.982-5.884,5.254-7.799,8.601c-2.044,3.575-3.734,7.828-3.795,11.995c-0.001,0.078,0.112,0.076,0.118,0
			c0.343-4.102,1.806-8.016,3.813-11.586c1.892-3.363,4.441-6.678,7.76-8.755c0.108,0.257,0.239,0.491,0.387,0.702
			c-3.391,2.683-5.955,6.16-7.195,10.359c-0.019,0.06,0.078,0.103,0.103,0.044c0.877-2.061,1.818-4.074,3.114-5.91
			c1.148-1.628,2.575-3.045,4.111-4.312c0.244,0.308,0.524,0.564,0.821,0.775c-2.427,3.54-2.844,8.154-2.693,12.344
			c0.003,0.076,0.117,0.076,0.119,0c0.168-4.195,0.377-8.64,2.746-12.227c0.276,0.179,0.563,0.324,0.844,0.44
			c-0.331,0.969-0.345,2.027,0.192,2.946c0.038,0.067,0.153,0.023,0.127-0.054c-0.337-0.98-0.412-1.897-0.136-2.819
			c0.976,0.367,1.825,0.399,1.825,0.399c0.926,1.171,2.764,2.634,4.453,2.634c0.769,0,1.913-0.216,2.933-0.45
			c1.402,2.955,1.543,6.135,1.239,9.423c-0.005,0.062,0.099,0.076,0.108,0.015c0.493-3.232,0.259-6.554-1.167-9.48
			c0.135-0.031,0.268-0.063,0.396-0.095c3.431,6.721,2.492,14.409,0.626,21.436c-0.032,0.121,0.145,0.166,0.185,0.05
			c2.402-6.752,2.878-15.069-0.571-21.545c0.515-0.13,0.941-0.247,1.196-0.319c1.261,3.629,1.802,7.806,1.482,11.598
			c-0.006,0.057,0.081,0.054,0.088,0c0.474-3.774-0.125-8.027-1.415-11.643c0.061-0.018,0.104-0.031,0.104-0.031s0,0,0.65,1.691
			c0.65,1.69,2.602,9.104,5.202,15.346c2.601,6.243,4.682,10.924,5.462,14.957c0.78,4.031-1.17,11.704-2.602,16.256
			c-1.431,4.552-2.99,13.005-3.901,15.736c-0.909,2.73-4.681,5.852-6.503,6.113c-4.808,0.687-7.413,3.512-8.322,6.113
			c-0.911,2.601,1.039,5.592,4.747,5.852c3.706,0.26,6.567,1.561,12.81-1.3c6.242-2.861,6.112-9.885,7.674-11.184
			c1.56-1.301,5.982-10.795,9.494-16.388c3.51-5.592,7.282-9.754,9.363-12.485c2.08-2.73,3.121-7.152,4.682-7.283
			c1.561-0.131,4.421-0.65,5.332-0.26c0.911,0.391,0.65,0.391,1.431,2.211c0.78,1.821,2.991,11.835,2.861,13.786
			c-0.13,1.951,0.261,8.583-0.131,10.794c-0.39,2.211-0.909,6.633-1.3,7.023c-0.391,0.389-1.301-0.13-1.301-0.13
			c-2.471,0-5.072,1.821-5.982,5.592c-0.911,3.771,2.471,3.902,2.471,3.902c0.65,1.951,5.982,0.91,5.982,0.91
			c2.472,1.431,5.723,0.65,9.104-2.34c3.381-2.992,5.593-10.795,5.982-14.307c0.39-3.511,0.65-10.535,1.69-14.045
			c1.04-3.511,3.252-10.275,4.553-16.777c1.3-6.503,3.381-4.682,8.713-6.243c5.332-1.561,17.037-1.431,17.037-1.431
			c0.52,3.771,9.494,10.274,10.274,12.096c0.78,1.82-1.431,11.184-1.431,11.184c-1.43,3.251-2.602,2.861-8.844,3.771
			c-6.242,0.91-4.162,7.934-4.162,7.934c2.814,3.094,8.878,1.916,12.485,1.691c2.081-0.13,3.122-2.602,5.983-5.463
			c2.861-2.861,10.403-15.996,12.484-19.768c1.327-2.405,0.487-4.384-0.297-5.505c2.795,3.124,6.015,5.976,9.661,7.976
			c4.032,2.211,6.893,1.04,6.893,1.04s0.261,1.171,0.13,3.123c-0.129,1.95-1.04,13.265-1.43,15.346
			c-0.391,2.081-1.301,2.991-3.382,3.512c-2.082,0.521-4.161,1.43-5.332,5.202c-1.171,3.771,2.601,3.512,2.601,3.512
			c2.211,3.771,7.413,1.301,7.413,1.301c3.252,2.34,6.242-0.65,8.064-2.471c1.82-1.82,2.731-5.332,3.512-8.064
			c0.78-2.73,0.26-16.256,2.211-22.758C456.953,186.651,455.521,183.92,452.921,178.979z"/>
		<path d="M278.257,387.931c-1.521-17.122-27.141-22.831-37.927-11.245c-16.95,18.205-0.032,47.188-16.71,60.906
			c-0.049-0.463-0.094-0.909-0.13-1.33c-1.29-15.275-5.705-27.926-13.121-41.742c-3.228-6.008-12.494-23.973-21.701-31.025
			c-8.964-6.87-22.776-15.065-40.352-17.576c0,0-2.092-5.44-4.364-8.668c-2.272-3.228-4.902-7.413-5.26-10.581
			c-0.357-3.169,0.298-6.756-0.24-9.267c0,0,2.153-2.331,2.63-3.587c0.479-1.255,0.419-1.973,0.896-2.929
			c0.479-0.957,6.218-12.733,3.05-14.049c-3.169-1.315-5.262-0.658-10.223,2.272c-4.961,2.93-7.772,3.407-9.326,3.407
			c0,0-4.961-4.782-15.722-5.11c0,0-2.781-4.933-4.036-7.443c-1.255-2.511-3.407-7.264-5.201-7.533
			c-1.792-0.268-2.331,1.076-3.228,6.816c-0.897,5.738-0.718,9.594-1.435,10.76c-0.717,1.166-1.705,4.215-2.152,4.754
			c-0.346,0.416-3.752,4.325-4.32,10.643c-3.909-1.62-7.919-3.036-12.013-4.095c-0.078-0.02-0.109,0.096-0.034,0.119
			c4.048,1.303,8.066,2.657,12.026,4.195c-0.014,0.185-0.024,0.373-0.034,0.563c-2.212-0.697-4.621-0.785-6.919-0.703
			c-3.183,0.113-6.362,0.637-9.47,1.315c-0.065,0.014-0.036,0.109,0.028,0.098c2.951-0.492,5.899-0.975,8.893-1.131
			c2.471-0.129,5.058-0.051,7.457,0.646c-0.01,0.243-0.016,0.488-0.016,0.736c-3.973-0.256-7.931,0.927-11.688,2.087
			c-0.047,0.015-0.028,0.087,0.02,0.074c3.833-0.962,7.689-2.123,11.671-1.981c0.004,0.711,0.048,1.447,0.135,2.208
			c-4.316,0.288-8.453,1.488-12.044,3.95c-3.56,2.442-6.302,5.9-8.615,9.5c-0.034,0.054,0.051,0.102,0.086,0.05
			c2.384-3.544,5.106-6.901,8.644-9.352c3.535-2.448,7.697-3.634,11.952-3.927c0.072,0.577,0.169,1.168,0.295,1.771
			c0,0,0.032,0.102,0.082,0.275c-4.982,1.932-9.305,5.377-12.437,9.746c-0.031,0.043,0.04,0.1,0.075,0.058
			c3.331-4.222,7.508-7.587,12.428-9.571c0.068,0.245,0.151,0.563,0.234,0.918c-1.863,0.715-3.571,1.826-5.182,3.004
			c-0.058,0.041-0.006,0.137,0.057,0.098c1.672-1.049,3.352-2.137,5.18-2.865c0.197,0.887,0.368,1.938,0.28,2.642
			c-0.179,1.435,0.091,3.676-0.09,10.671c-0.178,6.993-0.089,9.505-2.062,16.229c-1.972,6.727-3.496,9.058-2.061,17.666
			c1.434,8.608,8.132,21.701,11.463,30.757c3.332,9.058,6.291,18.473,7.277,27.978c0.986,9.506,1.883,11.926,2.24,14.438
			c0.361,2.511,0.181,6.098-0.537,7.532c-0.718,1.435-1.077,2.869-2.063,2.958c-0.985,0.09-5.829-0.627-6.546,2.692
			c-0.717,3.318-0.269,6.635,2.87,7.084c2.977,0.426,7.488,0.608,8.632-0.6c0.049-0.051,0.088-0.108,0.123-0.166
			c-0.564,1.065-2.522,5.223-0.416,6.415c3.361,1.905,5.444,2.025,9.219,2.073c2.236,0.026,6.357,0.232,7.819-1.894
			c1.972-2.87,3.855-5.47,3.855-5.47l1.165-2.154c0,0,3.469,1.543,7.462,2.872c-1.957,1.37-1.099,4.405,0.557,5.657
			c4.474,3.379,10.19,2.957,15.426,2.057c6.917-1.192,13.382-3.096,20.456-3.609c4.491-0.326,12.934,0.828,18.766-1.035
			c3.997-0.059,7.702-0.221,10.203-0.563c5.778,0.055,11.889-1.316,17.091-2.752c27.391-7.562,32.028-29.764,27.569-55.487
			c-1.101-6.347-0.85-16.964,2.375-22.663c2.977-5.261,14.546-6.227,16.807,0.529c1.813,5.411-6.611,8.316-3.694,13.779
			c1.584,2.969,3.544,3.375,5.487,2.366C274.261,400.912,278.563,391.407,278.257,387.931z M114.779,459.531
			c1.525-0.717,2.959-5.201,2.959-5.201C117.828,459.531,114.779,459.531,114.779,459.531z"/>
		<path d="M35.631,121.727c5.711-5.2,12.319-9.745,19.408-12.985c-0.553-1.201-1.043-2.37-1.44-3.503
			c-2.851,0.629-5.555,1.805-8.139,3.243c-0.086,0.048-0.155-0.076-0.076-0.129c2.437-1.631,5.229-2.782,8.122-3.369
			c-0.028-0.086-0.064-0.173-0.093-0.258c-0.101-0.308-0.181-0.636-0.252-0.971c-4.411,0.538-8.797,1.1-13.091,2.364
			c-0.091,0.026-0.125-0.108-0.039-0.14c4.201-1.511,8.658-1.989,13.085-2.467c-0.755-4.014,0.37-9.618,0.37-11.065
			c0-1.599-0.437-2.977-0.873-3.559c-0.436-0.581-0.436-3.705-1.452-5.666c-1.018-1.962-0.8-5.813,0-10.534
			c0.799-4.722,2.615-6.103,5.666-5.594c3.052,0.509,7.482,6.538,9.589,8.863c2.107,2.324,3.778,3.269,3.778,3.269
			c6.829-2.979,14.312,0.363,14.312,0.363s0.872-1.525,2.034-1.598c1.162-0.073,2.979,0,4.141-0.872
			c1.162-0.872,2.979-3.487,6.757-5.884c3.777-2.398,5.956-3.706,6.974-3.343c1.017,0.363,0.871,3.052-0.073,7.192
			c-0.944,4.141-1.743,6.974-2.47,8.209c-0.726,1.234-0.944,1.889-0.799,2.615c0.128,0.639,0.311,3.469-0.141,5.18
			c2.112-1.054,4.188-2.19,6.358-3.124c0.068-0.029,0.129,0.067,0.059,0.103c-2.206,1.126-4.35,2.402-6.577,3.496
			c-0.021,0.053-0.041,0.109-0.064,0.158c-0.726,1.525-0.581,2.396-0.072,3.123c0.144,0.205,0.316,0.617,0.493,1.128
			c2.834-0.431,5.709-0.667,8.515-0.76c4.914-0.162,9.88,0.475,14.539,2.066c0.043,0.016,0.025,0.084-0.02,0.07
			c-4.734-1.457-9.576-1.988-14.519-1.856c-2.834,0.075-5.605,0.463-8.373,0.909c0.036,0.11,0.07,0.225,0.106,0.341
			c1.708-0.087,3.419-0.103,5.086-0.048c3.334,0.109,6.59,0.909,9.306,2.905c0.047,0.033,0.005,0.109-0.046,0.078
			c-2.983-1.839-6.252-2.575-9.727-2.688c-1.498-0.048-2.996,0.066-4.492,0.189c0.113,0.403,0.221,0.819,0.315,1.222
			c1.154,0.246,2.318,0.432,3.487,0.621c0.095,0.015,0.071,0.168-0.022,0.165c-1.146-0.04-2.276-0.223-3.393-0.471
			c0.13,0.583,0.228,1.118,0.269,1.503c0.145,1.381,0.363,2.47,1.961,3.051c1.598,0.581,1.598,0.654,4.795,1.671
			c3.196,1.018,6.466,2.325,9.008,4.358c2.543,2.034,2.833,2.761,4.287,3.052c1.452,0.291,5.738,1.235,9.226,1.816
			c3.487,0.581,5.957,1.816,8.354,2.615c2.398,0.799,7.264,3.342,9.008,3.705c1.744,0.363,7.918,0.871,13.876,3.85
			c5.957,2.979,12.059,5.885,18.452,12.205c15.014,14.843,29.354,46.618,26.443,67.997c-0.872,6.393-2.615,11.042,6.974,16.273
			c9.589,5.23,17.436,10.17,22.085,15.11c4.648,4.939,13.656,15.98,17.145,24.117c4.691,10.947,9.973,24.049,22.082,24.574
			c17.52,0.76,1.43,16.951-9.879,14.365c-10.17-2.324-19.758-12.785-26.443-24.699c-6.683-11.914-22.956-42.862-46.493-37.413
			c-1.748,0.404-1.744,0.436-6.829,1.38c-5.085,0.944-12.641,0.654-14.384,0.575c-1.744-0.079-2.471-1.374-2.834-1.156
			c-0.362,0.218,0.363-0.218-1.017,0.828s-9.372-0.756-13.585-0.61c-4.213,0.145-14.456-0.072-15.691-0.072
			c-1.235,0-2.833-0.363-2.833-0.363c-1.816,1.38-6.394,0.944-7.701,0.866c-1.308-0.079-0.436,0.441-3.269,0
			c-2.833-0.442-3.924-3.772-3.996-5.661c-0.072-1.889,3.052-3.487,3.052-3.487c-2.543-0.727-1.453-3.414-1.38-4.213
			c0.072-0.8,2.396-2.107,4.648-3.052c2.252-0.944,5.448-0.508,5.448-0.508s-1.234-5.014-2.034-10.171
			c-0.799-5.158-3.486-6.103-5.012-7.628c-1.525-1.525-2.543-1.671-3.342-0.654c-0.799,1.018-1.453,1.816-1.672,3.706
			c-0.218,1.889-0.944,10.097-1.162,13.439c-0.218,3.343-2.324,9.59-3.196,14.021c-0.871,4.432-7.627,4.432-10.752,4.059
			c-3.123-0.372-2.905-1.008-2.905-1.008s-1.235,1.308-4.141,0.944c-2.905-0.363-3.124-3.341-2.833-6.538
			c0.29-3.196,4.067-4.432,5.594-5.376c1.525-0.944,3.704-1.162,3.704-1.162s1.018-4.141,0.872-7.773
			c-0.145-3.632-1.889-16.127-2.543-19.469c-0.653-3.342-1.961-9.081-3.56-10.97c-1.598-1.889-7.265-9.881-15.183-16.418
			c-7.919-6.539-10.897-9.154-13.657-13.948c-2.761-4.795-3.124-6.901-4.433-8.936c-1.308-2.034-1.089-11.043-0.944-12.568
			c0.146-1.525-0.145-2.034-1.38-4.067c-1.235-2.034-2.542-7.992-4.649-12.859c-0.69-1.596-1.434-3.139-2.17-4.641
			c-3.542,2.924-6.806,6.051-9.606,9.751c-0.057,0.074-0.183,0.008-0.13-0.076c2.524-3.939,5.97-7.062,9.606-9.941
			c-0.211-0.429-0.417-0.851-0.623-1.271c-6.417,3.918-11.783,8.88-17.023,14.332c-0.038,0.04-0.097-0.021-0.061-0.062
			c4.963-5.692,10.53-10.63,16.968-14.508c-0.419-0.854-0.824-1.693-1.206-2.516c-6.967,3.489-13.402,7.724-19.451,12.753
			C35.666,121.908,35.552,121.798,35.631,121.727z"/>
		<path d="M464.327,329.752c-10.499-3.517-20.729-7.388-29.32-14.415c0.007-0.015,0.012-0.03,0.019-0.046
			c0.06-0.131,0.113-0.272,0.166-0.417c4.27,3.127,9.077,5.366,13.873,7.59c0.157,0.073,0.295-0.148,0.139-0.236
			c-4.633-2.604-9.531-4.721-13.864-7.81c0.249-0.846,0.406-1.837,0.502-2.807c6.424,0.888,12.577,2.275,18.566,4.836
			c0.135,0.058,0.255-0.129,0.119-0.203c-5.732-3.12-12.244-4.231-18.648-5.055c0.03-0.361,0.053-0.715,0.068-1.053
			c3.703-0.803,7.354-1.354,11.186-0.872c0.096,0.012,0.117-0.15,0.022-0.169c-3.822-0.728-7.487-0.115-11.196,0.711
			c0.039-1.128,0.011-2.023-0.02-2.293c-0.076-0.686,0-3.889,0.229-5.338c0.228-1.448,1.371-2.897,2.362-4.726
			c0.992-1.831,0.838-6.177,1.297-8.387c0.458-2.213,0.991-3.508,1.448-6.94c0.457-3.431,0.686-10.217-1.677-11.207
			c-2.365-0.99-7.55,3.201-10.75,6.327c-3.203,3.127-5.033,5.718-6.405,6.786c-1.372,1.067-3.051,0.534-5.795,1.449
			c-2.745,0.914-7.395-0.152-9.836-0.61c-2.44-0.458-6.403-1.753-6.403-1.753s-3.008-5.49-4.288-7.016
			c-1.278-1.524-4.634-7.471-6.845-8.616c-2.21-1.143-4.423-1.372-5.946,1.526c-1.525,2.896-2.594,4.498-2.287,9.912
			c0.304,5.414-0.105,6.557-0.053,8.921c0.053,2.362-0.863,6.251,1.577,8.845c0,0-0.458,4.421,0.23,6.479
			c0,0-0.295,1.328-0.279,3.395c-3.472-0.745-6.915-1.243-10.497-0.561c-0.095,0.018-0.074,0.181,0.022,0.169
			c3.588-0.451,7.019,0.008,10.482,0.727c0.01,0.407,0.031,0.838,0.07,1.292c-6.176,0.815-12.422,1.954-17.944,4.961
			c-0.136,0.074-0.017,0.261,0.119,0.203c5.77-2.467,11.693-3.842,17.863-4.733c0.079,0.754,0.203,1.56,0.392,2.402
			c0.059,0.262,0.089,0.524,0.135,0.786c-4.162,2.834-8.795,4.857-13.186,7.325c-0.156,0.088-0.019,0.31,0.139,0.236
			c4.521-2.096,9.052-4.205,13.134-7.059c0.028,0.203,0.061,0.406,0.083,0.608c-8.414,6.603-18.321,10.336-28.479,13.738
			c-0.118,0.039-0.07,0.219,0.053,0.188c10.19-2.563,20.223-6.868,28.467-13.466c0.047,0.523,0.082,1.042,0.1,1.558
			c-4.423,4.573-8.614,9.489-11.384,15.241c-0.08,0.166,0.156,0.31,0.25,0.146c3.1-5.406,6.999-10.143,11.155-14.722
			c0.054,2.788-0.116,5.376,0.679,7.313c1.22,2.974-1.297,7.625-2.669,10.293c-1.373,2.669-4.117,9.531-2.592,17.46
			c0.8,4.161,0.511,8.011-1.376,11.9c-4.314,8.891-7.275,23.855-5.674,33.517c-9.485,0.445-13.083,13.924-13.462,21.631
			c-0.237,4.816,2.079,25.632,7.898,27.378c-13.425-4.031-26.952-14.542-33.037-27.248c-7.349-15.347-7.192-34.473,4.521-47.844
			c7.053-8.05,9.18,6.962,13.702,3.008c8.39-7.336-3.868-21.791-14.725-14.414c-20.021,13.603-21.678,41.44-15.092,62.291
			c3.436,10.872,9.19,20.449,18.383,27.366c8.132,6.117,26.219,16.663,36.564,16.451c0.121-0.004,0.233-0.012,0.352-0.018
			c0.793,1.68,1.445,3.42,1.837,5.214c1.135,3.792,3.615,2.377,3.615,2.377c2.363,2.362,4.498,1.144,4.498,1.144
			c2.288,2.059,4.574,0.686,4.574,0.686c5.72,1.677,7.396-3.736,7.243-4.88c-0.153-1.143,0.534-2.363,1.906-2.136
			c1.372,0.229,5.643-0.075,6.404-0.305c0.763-0.229,1.522-0.38,2.136,0.152c1.098,0.95,4.27-0.513,3.772,0.523
			c-0.534,1.111,0.492,7.093,5.444,4.156c1.717,2.178,6.533,1.779,7.457-0.18c0.044,0.529,0.749,0.94,4.179,0.932
			c5.991-0.017,3.838-4.913,2.537-8.051c-0.367-0.885-0.577-1.581-0.675-2.204c2.967-2.086,5.818-3.53,8.048-6.752
			c2.396-3.465,3.496-7.832,5.236-11.624c0.024-0.051,0.036-0.1,0.055-0.15c3.175-4.174,6.498-8.222,8.408-13.189
			c2.65-6.892,4.674-21.294-0.036-29.39c-2.233-3.839-6.483-7.598-11.265-6.185c1.511-7.286-0.037-16.578-1.359-23.808
			c-1.27-6.936-5.843-12.803-6.803-19.801c-0.698-5.083,0.745-10.142,0.247-15.259c-0.645-6.607-2.235-12.474-0.127-18.779
			c4.673,5.055,9.102,10.234,12.545,16.239c0.094,0.163,0.33,0.02,0.25-0.146c-3.032-6.298-7.771-11.591-12.649-16.532
			c0.126-0.349,0.27-0.699,0.42-1.051c8.416,7.039,18.826,11.588,29.412,14.25C464.397,329.971,464.445,329.791,464.327,329.752z"/>
	</g>
</g>
</svg>
