<svg xmlns="http://www.w3.org/2000/svg" xmlns:xlink="http://www.w3.org/1999/xlink" width="400" zoomAndPan="magnify" viewBox="0 0 300 299.999988" height="400" preserveAspectRatio="xMidYMid meet" version="1.2"><defs><clipPath id="7effda80ba"><path d="M 50.164062 37.480469 L 249.664062 37.480469 L 249.664062 262 L 50.164062 262 Z M 50.164062 37.480469 "/></clipPath></defs><g id="faac748252"><rect x="0" width="300" y="0" height="299.999988" style="fill:#ffffff;fill-opacity:1;stroke:none;"/><rect x="0" width="300" y="0" height="299.999988" style="fill:#ffffff;fill-opacity:1;stroke:none;"/><g clip-rule="nonzero" clip-path="url(#7effda80ba)"><path style=" stroke:none;fill-rule:nonzero;fill:#210807;fill-opacity:1;" d="M 249.324219 115.753906 C 248.683594 114.976562 247.679688 114.382812 246.625 114.566406 C 245.710938 114.65625 236.789062 116.578125 236.925781 117.3125 C 236.242188 113.46875 234.226562 110.082031 232.992188 106.46875 L 232.902344 106.285156 C 232.625 105.828125 232.304688 105.371094 232.125 104.914062 C 231.988281 104.5 232.445312 103.082031 232.535156 102.625 C 233.175781 97.503906 233.726562 92.378906 233.816406 87.207031 C 233.726562 84.1875 233.496094 81.171875 232.902344 78.195312 C 231.804688 69.6875 229.515625 61.085938 227.046875 52.898438 C 225.628906 48.1875 223.429688 43.65625 220.59375 39.632812 C 219.910156 38.671875 218.902344 37.710938 217.621094 37.710938 C 214.375 38.03125 210.941406 40.957031 208.289062 42.695312 C 205.269531 44.664062 202.25 46.722656 199.503906 49.101562 C 197.585938 50.65625 195.9375 52.578125 194.152344 54.316406 C 193.101562 55.324219 192.140625 56.421875 191.226562 57.5625 C 190.675781 58.25 189.945312 58.890625 189.53125 59.714844 C 188.9375 60.8125 189.074219 60.859375 187.792969 60.402344 C 185.871094 59.804688 183.8125 59.578125 181.847656 59.027344 C 175.714844 57.703125 169.402344 57.242188 163.136719 57.382812 C 155.816406 57.609375 148.632812 59.164062 141.496094 60.765625 C 140.035156 59.667969 139.027344 58.023438 137.882812 56.601562 C 135.777344 53.949219 133.261719 51.664062 130.839844 49.285156 C 127.316406 45.761719 123.199219 42.878906 119.035156 40.179688 C 116.976562 38.898438 114.734375 37.480469 112.171875 37.710938 C 110.800781 38.351562 109.75 39.90625 108.832031 41.09375 C 107.691406 42.511719 106.730469 44.070312 105.90625 45.667969 C 104.257812 48.964844 103.113281 52.484375 102.152344 56.007812 C 99.957031 63.738281 98.082031 71.609375 96.984375 79.570312 C 96.4375 83.550781 96.117188 87.621094 96.070312 91.644531 C 96.023438 95.304688 95.976562 99.378906 97.03125 102.898438 C 97.167969 103.3125 97.304688 103.722656 97.304688 104.136719 C 97.351562 105.003906 96.390625 106.195312 95.933594 106.878906 C 94.46875 109.03125 93.1875 111.363281 92.042969 113.695312 C 91.3125 115.160156 90.898438 116.808594 90.03125 118.226562 C 89.621094 118.179688 89.207031 118.179688 88.796875 118.132812 C 86.601562 117.953125 84.449219 117.402344 82.253906 117.265625 C 81.109375 117.082031 80.195312 118.269531 80.285156 119.324219 C 80.652344 120.46875 81.886719 120.925781 82.941406 121.246094 C 84.863281 121.65625 86.78125 122.160156 88.75 122.25 C 88.429688 124.539062 87.925781 126.828125 87.789062 129.160156 C 87.742188 132.957031 87.925781 136.753906 88.75 140.460938 C 87.882812 140.550781 87.058594 140.6875 86.1875 140.917969 C 85.363281 141.097656 84.585938 141.601562 84.128906 142.335938 C 83.582031 143.25 83.625 144.804688 84.816406 145.125 C 85.683594 145.539062 86.691406 145.355469 87.5625 145.171875 C 88.292969 144.851562 89.070312 144.4375 89.894531 144.347656 C 89.941406 144.898438 90.03125 145.445312 90.261719 145.949219 C 90.761719 147.230469 91.175781 148.554688 91.769531 149.792969 C 94.195312 154.550781 97.394531 158.894531 101.148438 162.738281 C 102.0625 163.652344 113.226562 173.03125 113.683594 171.980469 C 112.8125 173.808594 111.808594 175.59375 110.984375 177.421875 L 110.890625 177.421875 C 109.65625 179.800781 108.558594 182.226562 107.371094 184.605469 C 105.996094 187.214844 104.898438 189.957031 103.207031 192.382812 C 101.421875 195.21875 99.457031 197.964844 98.082031 201.027344 C 95.796875 205.511719 94.515625 210.5 93.875 215.484375 C 93.828125 217.679688 93.507812 219.878906 93.828125 222.074219 C 94.058594 225.824219 94.46875 229.574219 95.703125 233.144531 C 95.839844 233.738281 95.976562 234.378906 96.117188 234.972656 C 95.613281 234.882812 95.15625 234.789062 94.699219 234.699219 C 93.371094 234.425781 92.089844 234.058594 90.808594 233.648438 C 86.828125 232.457031 82.847656 231.175781 79.417969 228.796875 C 77.496094 227.515625 75.941406 225.734375 74.84375 223.71875 C 73.652344 221.523438 72.648438 219.007812 73.332031 216.492188 C 73.609375 214.023438 74.386719 211.550781 75.988281 209.675781 C 78 207.023438 80.972656 205.328125 83.445312 203.132812 C 84.953125 202.265625 85.914062 200.847656 87.058594 199.609375 C 87.789062 198.742188 88.382812 197.78125 89.023438 196.820312 C 90.214844 194.808594 90.808594 192.566406 91.265625 190.324219 C 92.273438 185.976562 91.3125 181.769531 88.109375 178.566406 C 86.28125 176.738281 83.902344 175.363281 81.292969 175.273438 C 78.410156 175.136719 75.574219 175.867188 72.875 176.691406 C 70.222656 177.46875 67.933594 179.160156 65.648438 180.71875 C 64.503906 181.585938 63.269531 182.457031 62.261719 183.507812 C 59.976562 185.839844 57.6875 188.265625 56.269531 191.285156 C 54.898438 193.664062 53.890625 196.226562 53.066406 198.832031 C 52.289062 201.304688 50.320312 210.726562 50.320312 213.199219 C 50.367188 222.941406 54.164062 232.550781 61.027344 239.59375 C 64 242.660156 67.796875 245.953125 71.777344 247.691406 C 78.730469 250.710938 85.914062 253.546875 93.554688 254.1875 C 98.496094 254.964844 103.527344 254.050781 108.375 253.089844 C 110.25 252.953125 112.308594 252.402344 114.003906 253.457031 C 116.566406 255.011719 119.492188 255.878906 122.464844 256.292969 C 124.890625 256.613281 128.917969 257.4375 131.160156 256.339844 C 131.339844 256.246094 131.570312 256.15625 131.796875 256.15625 C 132.394531 256.199219 133.445312 257.207031 133.949219 257.527344 C 136.375 258.898438 138.84375 260.089844 141.632812 260.867188 C 144.515625 261.644531 147.628906 262.332031 150.507812 261.324219 C 152.660156 260.730469 154.214844 258.808594 154.808594 256.75 C 154.992188 255.46875 154.855469 254.140625 154.625 252.90625 C 154.71875 253.273438 159.703125 253.457031 160.34375 253.5 C 162.816406 253.59375 165.242188 253.546875 167.710938 253.457031 C 168.441406 253.410156 175.535156 253.5 175.625 253.179688 C 175.074219 255.285156 176.21875 257.621094 178.09375 258.671875 C 179.972656 259.769531 182.167969 260.226562 184.363281 260.273438 C 188.984375 260.273438 195.570312 258.03125 199.003906 254.738281 C 201.929688 257.527344 208.472656 255.46875 211.855469 254.691406 C 217.988281 253.226562 222.882812 248.835938 227.136719 244.351562 C 227.777344 243.847656 228.007812 242.933594 228.738281 242.566406 C 229.789062 240.96875 231.117188 239.503906 232.078125 237.855469 C 232.582031 236.894531 233.085938 235.933594 233.542969 234.972656 C 234.683594 232.457031 235.601562 229.804688 236.285156 227.105469 C 237.523438 221.523438 237.476562 215.667969 236.195312 210.042969 C 235.644531 207.890625 234.777344 205.878906 233.90625 203.867188 C 233.359375 202.449219 232.625 201.121094 231.804688 199.886719 C 230.980469 198.695312 230.292969 197.414062 229.515625 196.226562 C 226.816406 191.925781 224.164062 187.625 221.691406 183.140625 C 220.457031 180.898438 219.3125 178.660156 218.214844 176.371094 C 217.988281 175.914062 216.25 170.835938 215.699219 171.109375 C 217.4375 170.285156 218.855469 168.914062 220.457031 167.816406 C 223.066406 165.941406 225.445312 163.699219 227.59375 161.320312 C 230.886719 157.707031 233.679688 153.542969 235.601562 149.058594 C 236.242188 147.457031 236.882812 145.855469 237.0625 144.117188 C 237.019531 144.347656 240.953125 145.171875 241.363281 145.171875 C 243.742188 145.355469 245.253906 141.96875 242.601562 141.007812 C 241.410156 140.597656 240.082031 140.640625 238.847656 140.460938 C 238.710938 140.460938 238.390625 140.460938 238.207031 140.503906 C 238.757812 138.902344 239.03125 137.257812 239.304688 135.609375 C 239.625 132.5 239.992188 129.296875 239.488281 126.140625 C 239.261719 124.308594 239.261719 122.390625 238.390625 120.695312 C 240.402344 120.238281 242.417969 119.597656 244.429688 119.230469 C 246.03125 118.867188 247.859375 118.820312 249.050781 117.539062 C 249.507812 117.082031 249.277344 116.351562 249.324219 115.753906 Z M 249.324219 115.753906 "/></g><path style=" stroke:none;fill-rule:nonzero;fill:#e5dafa;fill-opacity:1;" d="M 103.023438 245.085938 C 104.488281 246.546875 106.453125 247.785156 107.917969 249.15625 C 107.78125 249.15625 107.691406 249.109375 107.597656 249.109375 C 103.253906 250.117188 98.722656 250.710938 94.238281 250.207031 C 89.117188 249.660156 83.992188 248.515625 79.144531 246.683594 C 74.886719 245.085938 69.535156 243.027344 66.195312 239.867188 C 62.535156 236.4375 59.378906 232.410156 57.367188 227.792969 C 55.996094 224.542969 54.941406 221.15625 54.578125 217.636719 C 53.84375 211.503906 54.941406 204.917969 57 199.0625 C 58.417969 194.992188 60.523438 191.054688 63.453125 187.855469 C 65.875 185.382812 68.4375 182.867188 71.640625 181.402344 C 74.84375 179.757812 78.457031 178.980469 82.070312 179.253906 C 84.496094 179.4375 86.601562 181.3125 87.285156 183.597656 C 88.703125 188.402344 87.101562 193.527344 84.039062 197.371094 C 81.980469 199.929688 79.1875 201.761719 76.628906 203.820312 C 73.789062 206.105469 71.914062 208.578125 70.542969 211.960938 C 68.390625 217.179688 69.351562 223.078125 72.875 227.425781 C 76.582031 232 82.164062 234.929688 87.699219 236.574219 C 91.265625 237.671875 94.925781 238.589844 98.632812 238.910156 C 99.773438 241.195312 101.238281 243.300781 103.023438 245.085938 Z M 234.503906 139.316406 C 230.066406 139.453125 225.671875 138.445312 221.234375 138.8125 C 219.453125 138.902344 219.40625 141.191406 220.09375 142.425781 C 222.011719 142.976562 224.070312 142.792969 226.085938 142.976562 C 228.601562 143.066406 231.070312 143.707031 233.585938 143.84375 C 231.164062 151.164062 226.175781 157.292969 220.640625 162.507812 C 219.222656 163.746094 217.667969 164.75 216.203125 165.847656 C 211.398438 169.003906 206 171.246094 200.511719 172.804688 C 198.773438 173.304688 197.035156 173.902344 195.25 174.402344 C 193.832031 174.769531 192.324219 174.402344 190.949219 174.953125 C 189.808594 175.457031 189.304688 176.921875 189.761719 178.0625 C 190.492188 179.207031 192.046875 178.75 193.148438 178.660156 C 196.210938 178.019531 199.367188 177.515625 202.34375 176.554688 C 205.679688 175.640625 208.839844 174.128906 211.996094 172.804688 C 213.230469 175.183594 214.375 177.558594 215.65625 179.9375 C 216.933594 182.410156 218.035156 184.972656 219.40625 187.351562 C 220.777344 189.59375 221.96875 191.972656 223.523438 194.121094 C 225.351562 196.683594 227.089844 199.382812 228.554688 202.21875 C 229.515625 204.277344 230.707031 206.199219 231.390625 208.347656 C 232.445312 211.824219 233.175781 215.441406 233.3125 219.097656 C 233.3125 222.117188 232.671875 225.09375 231.804688 227.929688 C 230.886719 231.222656 229.46875 234.332031 227.640625 237.214844 C 224.851562 241.605469 220.960938 245.3125 216.476562 247.964844 C 214.28125 249.292969 211.902344 250.34375 209.476562 251.078125 C 208.378906 251.398438 207.238281 251.808594 206.140625 252.039062 C 205.910156 252.082031 202.707031 251.992188 203.027344 251.582031 C 203.761719 250.757812 204.765625 250.117188 205.5 249.292969 C 210.300781 244.125 213.503906 237.71875 215.5625 230.992188 C 216.613281 227.609375 217.347656 224.132812 217.851562 220.65625 C 218.125 218.917969 218.308594 217.179688 218.445312 215.441406 C 218.535156 214.160156 219.085938 212.328125 218.214844 211.230469 C 218.035156 211.003906 217.804688 210.820312 217.574219 210.683594 C 216.386719 209.949219 214.832031 211.003906 214.554688 212.238281 C 214.191406 213.382812 214.695312 214.339844 214.738281 215.441406 C 214.785156 216.539062 214.511719 217.679688 214.375 218.777344 C 214.007812 221.203125 213.503906 223.628906 212.910156 226.054688 C 211.492188 231.679688 209.433594 237.261719 206.140625 242.066406 C 203.394531 246.089844 199.78125 249.523438 195.617188 252.128906 C 191.316406 254.828125 185.964844 257.300781 180.792969 256.109375 C 179.972656 255.972656 179.332031 255.238281 179.46875 254.417969 C 180.246094 250.757812 181.847656 247.324219 183.675781 244.125 C 188.070312 236.847656 191.546875 227.378906 191.316406 218.777344 C 191.269531 217.40625 191.773438 216.082031 191.726562 214.707031 C 191.546875 213.65625 190.675781 212.511719 189.488281 212.558594 C 188.664062 212.511719 188.070312 213.242188 187.75 213.882812 C 187.289062 215.394531 187.703125 216.996094 187.566406 218.503906 C 187.382812 220.472656 187.289062 222.4375 186.789062 224.40625 C 185.644531 229.394531 184.410156 234.46875 181.847656 238.953125 C 180.382812 242.429688 177.867188 245.40625 176.996094 249.109375 C 171.738281 249.292969 166.476562 249.566406 161.214844 249.660156 C 158.425781 249.523438 155.679688 249.203125 152.886719 249.203125 C 151.378906 245.632812 148.679688 242.707031 147.214844 239.136719 C 146.027344 236.390625 144.882812 233.554688 144.425781 230.582031 C 143.738281 225.320312 143.191406 220.015625 143.464844 214.707031 C 143.511719 213.703125 142.824219 212.558594 141.726562 212.464844 C 140.308594 212.144531 138.933594 213.5625 139.117188 214.980469 C 139.253906 216.125 139.574219 217.269531 139.484375 218.414062 C 139.300781 223.214844 140.078125 228.019531 140.992188 232.730469 C 141.773438 236.710938 143.785156 240.507812 145.75 244.078125 C 147.71875 247.601562 150.691406 251.671875 150.875 255.835938 C 150.464844 257.207031 148.953125 257.894531 147.628906 257.9375 C 145.203125 257.984375 142.777344 257.390625 140.445312 256.75 C 139.074219 256.382812 137.882812 255.652344 136.695312 254.921875 C 132.4375 252.359375 128.414062 249.292969 125.257812 245.449219 C 123.5625 243.664062 122.238281 241.605469 121.003906 239.503906 C 118.851562 236.027344 117.570312 232.136719 116.886719 228.113281 C 116.382812 225.457031 115.832031 222.757812 115.648438 220.058594 C 115.695312 218.046875 114.828125 215.804688 115.96875 214.019531 C 116.015625 212.832031 115.695312 211.503906 114.6875 210.773438 C 113.726562 210.179688 112.449219 210.773438 112.035156 211.78125 C 111.394531 213.289062 111.898438 214.9375 111.808594 216.539062 C 111.257812 223.125 112.8125 229.667969 114.917969 235.890625 C 116.609375 239.960938 118.667969 243.941406 121.78125 247.097656 C 122.921875 248.195312 123.792969 249.523438 125.027344 250.574219 C 125.761719 251.261719 126.492188 251.992188 127.316406 252.585938 C 127.042969 252.359375 125.394531 252.679688 124.980469 252.679688 C 124.203125 252.632812 123.472656 252.496094 122.742188 252.3125 C 121.046875 251.945312 119.402344 251.441406 117.800781 250.847656 C 114.597656 249.613281 111.578125 247.875 108.925781 245.679688 C 105.082031 242.523438 102.015625 238.449219 100.003906 233.921875 C 97.808594 228.933594 97.304688 222.757812 97.578125 217.359375 C 97.671875 214.84375 98.402344 212.421875 98.90625 209.949219 C 100.371094 203.546875 104.394531 198.238281 107.691406 192.703125 C 110.527344 187.714844 112.90625 182.457031 115.375 177.285156 C 116.0625 175.960938 116.425781 174.449219 117.066406 173.121094 C 117.113281 173.078125 121.277344 174.953125 121.644531 175.042969 C 126.308594 176.554688 130.976562 178.15625 135.871094 178.613281 C 136.417969 178.613281 137.015625 178.519531 137.515625 178.292969 C 138.707031 177.421875 138.15625 175.273438 136.785156 174.90625 C 135.640625 174.585938 134.40625 174.496094 133.261719 174.3125 C 129.421875 173.625 125.714844 172.34375 122.054688 170.925781 C 118.898438 169.691406 115.148438 168.730469 112.355469 166.765625 C 109.929688 165.070312 107.507812 163.332031 105.265625 161.367188 C 103.527344 159.582031 101.652344 157.890625 100.140625 155.921875 C 99.179688 154.59375 98.128906 153.359375 97.257812 151.941406 C 95.703125 149.195312 94.101562 146.453125 93.1875 143.433594 C 94.195312 143.296875 95.246094 143.203125 96.296875 143.203125 C 99.410156 143.25 102.519531 142.792969 105.632812 142.699219 C 107.140625 142.699219 108.238281 141.238281 107.964844 139.773438 C 107.964844 138.628906 106.5 138.675781 105.675781 138.675781 C 101.101562 138.949219 96.574219 139.359375 92 139.453125 C 91.859375 139.453125 91.496094 131.949219 91.496094 131.21875 C 91.496094 128.382812 92.179688 125.820312 92.5 123.027344 C 93.78125 123.074219 95.335938 123.625 96.390625 122.617188 C 96.894531 122.207031 97.398438 121.335938 96.757812 120.832031 C 96.117188 119.917969 95.019531 119.550781 93.917969 119.460938 C 94.058594 119.050781 94.148438 118.636719 94.285156 118.226562 C 96.664062 112.917969 99.273438 107.75 102.429688 102.855469 C 105.539062 97.960938 108.878906 93.203125 112.675781 88.808594 C 114.597656 86.566406 116.703125 84.417969 118.898438 82.449219 C 120.773438 80.757812 123.382812 78.058594 125.898438 77.417969 C 126.582031 77.738281 130.976562 77.96875 128.960938 73.621094 C 127.132812 69.597656 126.402344 64.976562 123.882812 61.269531 C 122.695312 59.074219 121.046875 57.199219 119.722656 55.09375 C 119.035156 54.085938 118.164062 52.898438 116.792969 53.125 C 116.425781 53.445312 116.0625 53.8125 115.878906 54.269531 C 115.789062 56.464844 117.753906 57.792969 118.667969 59.621094 C 121.460938 63.878906 123.425781 68.636719 125.027344 73.4375 C 124.9375 73.117188 118.257812 77.648438 117.707031 78.105469 C 113.546875 81.671875 109.886719 85.789062 106.453125 90.046875 C 104.121094 93.019531 102.246094 96.359375 99.777344 99.195312 C 99.683594 97.960938 99.730469 96.679688 99.683594 95.441406 C 99.363281 92.058594 99.777344 88.71875 99.914062 85.332031 C 100.1875 82.085938 100.644531 78.835938 101.148438 75.632812 C 101.789062 72.203125 102.566406 68.773438 103.390625 65.339844 C 103.433594 65.203125 103.480469 64.976562 103.480469 64.839844 C 104.53125 58.617188 106.636719 52.578125 109.566406 46.996094 C 110.527344 45.027344 111.714844 43.109375 113.363281 41.691406 C 114.324219 41.414062 115.191406 42.148438 116.015625 42.558594 C 117.890625 43.792969 119.765625 45.027344 121.550781 46.355469 C 123.519531 47.773438 125.484375 49.285156 127.359375 50.839844 C 130.882812 54.179688 134.359375 57.65625 137.242188 61.589844 C 138.15625 62.824219 139.210938 64.105469 140.582031 64.882812 C 141.773438 65.433594 142.914062 64.609375 143.96875 64.199219 C 146.710938 63.28125 149.59375 62.960938 152.429688 62.367188 C 158.789062 61.132812 165.285156 61.179688 171.78125 61.359375 C 176.402344 61.679688 180.976562 62.6875 185.460938 63.785156 C 186.605469 64.015625 187.703125 64.609375 188.9375 64.65625 C 190.628906 64.152344 191.867188 62.78125 192.917969 61.40625 C 195.9375 56.96875 199.917969 53.265625 204.171875 50.0625 C 205.179688 49.285156 217.253906 41.09375 217.484375 41.460938 C 219.359375 44.753906 221.464844 47.820312 222.515625 51.480469 C 223.707031 55.550781 224.894531 59.667969 225.949219 63.785156 C 228.050781 71.976562 229.746094 80.347656 230.203125 88.855469 C 230.339844 91.003906 230.019531 93.15625 229.746094 95.304688 C 229.652344 96.722656 229.609375 98.140625 229.425781 99.558594 C 229.332031 99.558594 229.105469 99.515625 228.96875 99.46875 C 226.3125 95.078125 223.203125 90.960938 219.773438 87.164062 C 217.164062 84.328125 214.511719 81.582031 211.582031 79.066406 C 209.386719 77.050781 206.960938 75.3125 204.402344 73.757812 C 205.039062 72.203125 205.542969 70.601562 206.140625 69.046875 C 207.375 65.660156 209.113281 62.503906 211.125 59.53125 C 211.902344 58.386719 212.957031 57.335938 213.503906 56.007812 C 214.054688 54.589844 213.597656 52.394531 211.492188 53.21875 C 210.578125 53.585938 210.027344 54.5 209.570312 55.277344 C 208.058594 57.882812 205.910156 60.035156 204.582031 62.78125 C 202.617188 66.941406 201.289062 71.335938 200.328125 75.816406 C 200.285156 76.824219 200.921875 77.832031 201.976562 78.011719 C 202.753906 78.058594 203.441406 77.691406 204.171875 77.648438 C 205.863281 78.609375 207.144531 80.164062 208.609375 81.445312 C 211.035156 83.546875 213.503906 85.652344 215.746094 88.03125 C 218.902344 91.601562 221.875 95.351562 224.390625 99.378906 C 226.128906 101.757812 227.550781 104.363281 228.828125 106.972656 C 230.886719 110.859375 232.214844 113.789062 233.175781 118.089844 C 232.488281 118.179688 228.96875 121.015625 229.746094 121.886719 C 230.75 123.210938 233.359375 121.382812 234.730469 121.335938 C 234.824219 122.25 235.097656 124.8125 235.28125 125.726562 C 236.46875 130.257812 235.464844 134.878906 234.503906 139.316406 Z M 142.414062 126.828125 C 140.535156 125.042969 138.570312 123.210938 136.28125 121.976562 C 132.621094 119.734375 128.140625 119.003906 123.929688 119.78125 C 121.460938 120.332031 118.898438 121.109375 116.886719 122.753906 C 115.925781 123.488281 115.558594 124.996094 116.425781 125.957031 C 118.164062 126.414062 119.8125 125.5 121.324219 124.675781 C 123.703125 123.394531 126.492188 123.257812 129.101562 123.578125 C 132.898438 124.21875 136.28125 126.367188 138.933594 129.066406 C 139.804688 129.9375 140.535156 131.308594 141.910156 131.265625 C 142.777344 131.402344 143.417969 130.667969 143.832031 129.984375 C 144.242188 128.746094 143.234375 127.648438 142.414062 126.828125 Z M 176.175781 137.210938 C 175.214844 136.980469 174.800781 138.082031 174.207031 138.582031 C 173.335938 139.679688 171.828125 139.773438 170.546875 139.542969 C 168.992188 139.316406 167.253906 139.039062 166.292969 137.667969 C 167.800781 136.570312 168.488281 134.695312 169.082031 132.957031 C 169.449219 131.996094 168.898438 130.898438 167.941406 130.578125 C 165.878906 129.9375 163.683594 129.800781 161.535156 129.800781 C 160.527344 129.84375 159.339844 129.9375 158.605469 130.714844 C 158.105469 131.035156 157.738281 132.085938 158.605469 132.132812 C 158.46875 132.179688 158.285156 132.222656 158.148438 132.222656 C 158.195312 133.734375 159.523438 134.785156 160.300781 135.929688 C 160.621094 136.433594 161.261719 136.9375 160.941406 137.578125 C 159.84375 138.8125 158.105469 139.40625 156.503906 139.5 C 155.085938 139.542969 153.894531 138.675781 152.886719 137.804688 C 152.203125 137.121094 151.105469 137.121094 150.417969 137.804688 C 149.824219 139.132812 150.328125 140.6875 151.332031 141.648438 C 152.523438 142.5625 154.03125 142.929688 155.542969 143.066406 C 156.824219 143.160156 158.105469 143.433594 159.339844 143.160156 C 160.847656 142.699219 162.449219 141.921875 163.363281 140.550781 C 165.652344 142.929688 169.175781 143.753906 172.378906 143.433594 C 173.933594 143.339844 175.441406 142.746094 176.585938 141.695312 C 177.316406 141.054688 177.273438 140.046875 177.410156 139.132812 C 177.59375 138.355469 177.136719 137.300781 176.175781 137.210938 Z M 209.660156 124.21875 C 209.296875 123.167969 208.335938 122.480469 207.375 122.113281 C 204.765625 121.0625 202.113281 119.78125 199.230469 119.871094 C 197.171875 119.78125 195.023438 119.828125 193.054688 120.605469 C 190.949219 121.289062 189.304688 122.800781 187.472656 124.035156 C 186.332031 124.8125 185.414062 125.910156 184.363281 126.78125 C 182.808594 127.648438 182.488281 130.257812 184.132812 131.171875 C 185.277344 131.402344 186.695312 131.171875 187.382812 130.164062 C 189.625 127.328125 192.460938 124.628906 196.121094 123.988281 C 199.09375 123.347656 202.066406 124.265625 204.8125 125.363281 C 206.140625 125.773438 207.558594 126.550781 208.976562 126.003906 C 209.296875 125.453125 209.890625 124.90625 209.660156 124.21875 Z M 209.660156 124.21875 "/><path style=" stroke:none;fill-rule:nonzero;fill:#ffbd59;fill-opacity:1;" d="M 119.035156 132.773438 C 119.265625 134.375 119.265625 135.976562 119.585938 137.53125 C 119.402344 138.21875 118.988281 138.8125 118.667969 139.40625 C 118.257812 139.5 117.800781 139.636719 117.386719 139.773438 C 116.472656 139.039062 116.246094 137.898438 116.289062 136.753906 C 116.472656 136.160156 116.519531 135.519531 116.425781 134.921875 L 116.519531 134.785156 C 116.472656 134.007812 116.839844 133.324219 117.433594 132.863281 C 117.9375 132.636719 118.53125 132.820312 119.035156 132.773438 Z M 123.472656 134.648438 C 123.519531 133.917969 123.519531 133.140625 123.425781 132.40625 C 122.648438 132.316406 121.824219 132.269531 121.046875 132.40625 C 121.046875 132.820312 121.003906 133.230469 121.003906 133.644531 L 120.820312 133.734375 C 120.820312 134.601562 120.773438 135.519531 120.820312 136.386719 C 120.773438 137.714844 120.957031 139.179688 121.871094 140.183594 C 122.191406 140 122.558594 140 122.921875 140.183594 C 123.152344 140.046875 123.382812 139.957031 123.65625 139.820312 C 123.839844 138.859375 123.929688 137.898438 123.703125 136.980469 C 123.65625 136.980469 123.425781 134.785156 123.472656 134.648438 Z M 128.414062 135.199219 C 128.414062 134.375 128.367188 133.503906 128.320312 132.683594 C 127.910156 132.636719 127.542969 132.542969 127.179688 132.5 C 125.941406 132.316406 126.082031 134.101562 125.898438 134.921875 L 125.761719 134.96875 C 125.714844 135.335938 125.667969 135.703125 125.667969 136.023438 C 125.394531 136.570312 125.441406 137.210938 125.394531 137.804688 C 125.578125 138.261719 125.621094 138.8125 126.125 139.039062 C 125.164062 139.589844 126.539062 140.597656 127.179688 140.183594 C 128.09375 139.863281 128.320312 138.859375 128.734375 138.082031 C 128.550781 137.898438 128.367188 137.667969 128.183594 137.484375 C 128.871094 137.027344 128.320312 135.929688 128.414062 135.199219 Z M 133.078125 133.6875 C 131.9375 132.957031 131.066406 134.144531 130.335938 134.921875 C 130.378906 135.425781 130.425781 135.882812 130.472656 136.386719 C 130.378906 136.480469 130.199219 136.660156 130.058594 136.800781 C 130.105469 137.164062 130.152344 137.53125 130.199219 137.851562 C 130.839844 138.402344 130.65625 139.269531 130.5625 140 C 131.339844 140.09375 132.394531 139.910156 132.578125 138.996094 C 133.125 137.300781 133.445312 135.472656 133.078125 133.6875 Z M 201.976562 132.957031 C 201.929688 133.003906 201.882812 133.046875 201.882812 133.09375 C 201.703125 133.503906 201.746094 133.964844 201.703125 134.421875 C 201.609375 135.015625 201.289062 136.707031 201.5625 136.660156 C 201.472656 136.980469 201.929688 138.8125 201.472656 138.949219 C 201.472656 140.367188 203.714844 139.269531 203.441406 138.261719 C 203.714844 136.433594 203.53125 134.558594 203.621094 132.726562 C 203.121094 132.773438 202.296875 132.636719 201.976562 132.957031 Z M 198.085938 133.644531 C 198.542969 132.542969 196.945312 132.222656 196.164062 132.363281 C 196.121094 132.589844 196.074219 133.003906 196.074219 133.183594 C 195.800781 134.601562 195.84375 136.066406 195.800781 137.53125 C 195.25 138.582031 196.121094 140.046875 197.265625 140.320312 C 197.722656 140.140625 198.179688 139.910156 198.589844 139.542969 C 198.453125 139.40625 198.222656 139.085938 198.132812 138.902344 C 198.453125 137.210938 197.996094 135.425781 198.085938 133.644531 Z M 208.152344 133.460938 C 207.695312 133.140625 206.824219 133.644531 206.550781 134.191406 C 206.460938 134.328125 205.542969 136.9375 205.5 137.441406 C 205.453125 137.898438 205.269531 139.542969 205.726562 139.820312 C 206.460938 140.230469 207.328125 140 207.832031 139.40625 C 208.472656 138.539062 208.015625 137.441406 208.152344 136.433594 C 208.242188 135.703125 208.65625 134.511719 208.378906 133.78125 C 208.335938 133.597656 208.242188 133.503906 208.152344 133.460938 Z M 211.765625 134.558594 C 211.71875 134.054688 211.582031 133.460938 211.078125 133.230469 C 210.394531 133.003906 209.296875 133.460938 209.570312 134.328125 C 209.707031 134.878906 209.84375 135.382812 209.980469 135.929688 C 209.796875 136.570312 209.890625 137.257812 209.980469 137.941406 C 210.347656 138.582031 211.035156 138.675781 211.71875 138.628906 C 211.996094 137.257812 211.855469 135.882812 211.765625 134.558594 Z M 194.425781 133.6875 C 194.152344 133.734375 193.648438 133.824219 193.421875 134.007812 C 193.148438 134.238281 193.285156 134.191406 193.191406 134.558594 C 193.054688 135.105469 192.828125 135.65625 192.78125 136.203125 C 192.734375 136.707031 192.964844 137.257812 193.328125 137.621094 C 193.421875 137.714844 193.511719 137.761719 193.605469 137.761719 C 193.832031 137.761719 193.96875 137.578125 194.0625 137.394531 C 194.382812 136.800781 194.566406 136.066406 194.566406 135.382812 C 194.566406 135.289062 194.566406 135.242188 194.609375 135.199219 C 194.65625 135.152344 194.703125 135.152344 194.746094 135.105469 C 194.746094 135.0625 194.746094 135.015625 194.746094 134.96875 C 194.609375 134.558594 194.566406 134.101562 194.425781 133.6875 Z M 211.171875 59.667969 C 209.160156 62.640625 207.417969 65.796875 206.183594 69.183594 C 205.589844 70.738281 205.039062 72.339844 204.445312 73.894531 C 207.007812 75.40625 209.433594 77.144531 211.628906 79.203125 C 214.554688 81.71875 217.210938 84.507812 219.816406 87.300781 C 221.234375 88.855469 222.5625 90.457031 223.84375 92.148438 C 223.84375 92.148438 225.765625 74.902344 213.550781 56.101562 C 213 57.425781 211.949219 58.480469 211.171875 59.667969 Z M 107.917969 88.535156 C 110.984375 84.875 114.1875 81.351562 117.847656 78.242188 C 118.394531 77.785156 125.074219 73.253906 125.164062 73.574219 C 123.5625 68.773438 121.597656 64.015625 118.804688 59.761719 C 117.9375 58.066406 116.152344 56.742188 116.015625 54.726562 C 113.453125 59.027344 106.5 72.296875 107.917969 88.535156 Z M 107.917969 88.535156 "/><path style=" stroke:none;fill-rule:nonzero;fill:#ffffff;fill-opacity:1;" d="M 163.683594 126.78125 C 149.367188 126.78125 137.746094 135.976562 137.746094 147.320312 C 137.746094 158.667969 149.367188 167.863281 163.683594 167.863281 C 178.003906 167.863281 189.625 158.667969 189.625 147.320312 C 189.625 135.976562 178.050781 126.78125 163.683594 126.78125 Z M 177.453125 139.222656 C 177.316406 140.09375 177.363281 141.144531 176.632812 141.785156 C 175.488281 142.792969 173.976562 143.433594 172.421875 143.523438 C 169.21875 143.84375 165.699219 143.019531 163.410156 140.640625 C 162.542969 142.015625 160.941406 142.792969 159.382812 143.25 C 158.105469 143.523438 156.824219 143.25 155.585938 143.160156 C 154.125 143.019531 152.613281 142.65625 151.378906 141.738281 C 150.371094 140.78125 149.824219 139.222656 150.464844 137.898438 C 151.148438 137.210938 152.246094 137.210938 152.933594 137.898438 C 153.941406 138.8125 155.128906 139.636719 156.546875 139.589844 C 158.195312 139.542969 159.886719 138.949219 160.984375 137.667969 C 161.304688 137.027344 160.664062 136.523438 160.34375 136.023438 C 159.523438 134.832031 158.242188 133.824219 158.195312 132.316406 C 158.285156 132.269531 158.515625 132.222656 158.652344 132.222656 C 157.785156 132.179688 158.105469 131.125 158.652344 130.804688 C 159.382812 130.027344 160.574219 129.9375 161.582031 129.890625 C 163.730469 129.84375 165.925781 130.027344 167.984375 130.667969 C 168.945312 130.945312 169.496094 132.085938 169.128906 133.046875 C 168.535156 134.742188 167.847656 136.617188 166.339844 137.761719 C 167.300781 139.132812 169.039062 139.359375 170.59375 139.636719 C 171.875 139.863281 173.382812 139.726562 174.253906 138.675781 C 174.847656 138.171875 175.257812 137.074219 176.21875 137.300781 C 177.136719 137.300781 177.59375 138.355469 177.453125 139.222656 Z M 58.554688 195.265625 C 59.835938 192.613281 61.394531 190.09375 63.40625 187.945312 C 65.832031 185.476562 68.390625 182.957031 71.59375 181.496094 C 74.796875 179.847656 78.410156 179.070312 82.023438 179.34375 C 84.449219 179.527344 86.554688 181.402344 87.242188 183.691406 C 88.660156 188.496094 87.058594 193.617188 83.992188 197.460938 C 81.933594 200.023438 79.144531 201.851562 76.582031 203.910156 C 76.167969 204.277344 75.757812 204.597656 75.347656 204.964844 C 64.230469 211.597656 59.65625 202.082031 58.554688 195.265625 Z M 58.554688 195.265625 "/><path style=" stroke:none;fill-rule:nonzero;fill:#8c52ff;fill-opacity:1;" d="M 195.664062 252.082031 C 191.363281 254.78125 186.011719 257.253906 180.839844 256.0625 C 180.015625 255.925781 179.375 255.195312 179.515625 254.371094 C 180.292969 250.710938 181.894531 247.28125 183.722656 244.078125 C 184.453125 242.886719 185.140625 241.609375 185.828125 240.28125 C 185.828125 240.28125 188.023438 246.273438 192.734375 246.273438 C 197.445312 246.273438 206.140625 242.066406 206.140625 242.066406 C 203.394531 246.089844 199.78125 249.523438 195.664062 252.082031 Z M 226.769531 228.113281 C 221.007812 243.527344 206.917969 247.691406 206.917969 247.691406 C 206.460938 248.242188 206 248.789062 205.5 249.292969 C 204.71875 250.117188 203.761719 250.757812 203.027344 251.582031 C 202.660156 251.992188 205.910156 252.082031 206.140625 252.039062 C 207.28125 251.808594 208.378906 251.398438 209.476562 251.078125 C 211.949219 250.34375 214.28125 249.292969 216.476562 247.964844 C 220.960938 245.3125 224.851562 241.605469 227.640625 237.214844 C 229.46875 234.332031 230.933594 231.222656 231.804688 227.929688 C 232.671875 225.046875 233.3125 222.074219 233.3125 219.097656 C 233.222656 215.441406 232.445312 211.824219 231.390625 208.347656 C 230.707031 206.199219 229.515625 204.277344 228.554688 202.21875 C 228.601562 202.171875 232.582031 212.695312 226.769531 228.113281 Z M 125.441406 245.449219 C 128.597656 249.292969 132.621094 252.359375 136.875 254.921875 C 138.066406 255.652344 139.253906 256.382812 140.628906 256.75 C 142.960938 257.390625 145.339844 258.03125 147.808594 257.9375 C 149.136719 257.894531 150.691406 257.207031 151.058594 255.835938 C 150.828125 251.671875 147.902344 247.601562 145.933594 244.078125 C 145.25 242.84375 144.5625 241.609375 143.921875 240.328125 C 143.921875 240.328125 144.289062 246.867188 138.25 248.789062 C 132.210938 250.710938 125.441406 245.449219 125.441406 245.449219 Z M 149.867188 243.667969 C 151.011719 245.449219 152.246094 247.234375 153.070312 249.203125 C 155.863281 249.15625 158.605469 249.476562 161.398438 249.660156 C 166.660156 249.613281 171.917969 249.292969 177.179688 249.109375 C 177.683594 247.050781 178.644531 245.175781 179.695312 243.390625 Z M 125.074219 252.679688 C 125.53125 252.722656 127.132812 252.402344 127.40625 252.585938 C 126.582031 251.992188 125.851562 251.261719 125.121094 250.574219 C 123.929688 249.523438 123.0625 248.195312 121.871094 247.097656 C 121.871094 247.097656 112.402344 243.070312 105.722656 231.910156 C 99.042969 220.746094 103.710938 199.199219 103.710938 199.199219 C 101.652344 202.585938 99.820312 206.105469 98.953125 209.996094 C 98.449219 212.464844 97.714844 214.890625 97.625 217.40625 C 97.304688 222.804688 97.808594 228.980469 100.050781 233.96875 C 102.0625 238.496094 105.128906 242.566406 108.96875 245.726562 C 111.625 247.921875 114.644531 249.660156 117.847656 250.894531 C 119.445312 251.535156 121.09375 251.992188 122.785156 252.359375 C 123.5625 252.496094 124.34375 252.632812 125.074219 252.679688 Z M 212.085938 172.710938 C 208.882812 174.082031 205.773438 175.59375 202.433594 176.460938 C 199.414062 177.421875 196.304688 177.878906 193.238281 178.566406 C 179.605469 182.179688 136.007812 178.613281 136.007812 178.613281 C 131.113281 178.15625 126.445312 176.554688 121.78125 175.042969 C 121.460938 174.953125 118.121094 173.441406 117.34375 173.167969 L 117.207031 173.121094 C 117.207031 173.121094 129.054688 185.429688 167.253906 184.789062 C 205.453125 184.148438 212.085938 172.710938 212.085938 172.710938 Z M 163.503906 61.453125 C 159.796875 61.542969 156.089844 61.820312 152.476562 62.550781 C 149.914062 63.101562 147.308594 63.375 144.792969 64.152344 C 146.390625 69.6875 149.136719 75.359375 152.523438 81.125 C 153.574219 82.953125 156.089844 82.40625 156.503906 80.253906 C 157.601562 74.214844 159.476562 68.40625 162.222656 62.960938 C 162.496094 62.277344 163 61.773438 163.503906 61.453125 Z M 178.234375 81.214844 C 181.617188 75.632812 184.089844 69.871094 185.324219 63.96875 C 180.886719 62.871094 176.355469 61.910156 171.78125 61.589844 C 170.136719 61.542969 168.441406 61.5 166.75 61.5 C 167.160156 61.726562 167.574219 62.09375 167.894531 62.550781 C 171.324219 67.539062 173.292969 73.53125 174.253906 80.253906 C 174.617188 82.359375 177.136719 83 178.234375 81.214844 Z M 107.917969 249.15625 C 106.5 247.738281 104.488281 246.503906 103.023438 245.085938 C 101.238281 243.300781 99.820312 241.195312 98.585938 239 C 98.585938 239 96.617188 246.046875 81.109375 244.351562 C 65.648438 242.660156 55.996094 224.175781 55.949219 224.132812 C 56.359375 225.367188 56.816406 226.601562 57.320312 227.835938 C 59.335938 232.457031 62.492188 236.484375 66.152344 239.914062 C 69.492188 243.070312 74.84375 245.175781 79.097656 246.730469 C 83.945312 248.5625 89.023438 249.703125 94.195312 250.253906 C 98.675781 250.710938 103.207031 250.164062 107.550781 249.15625 C 107.691406 249.15625 107.78125 249.15625 107.917969 249.15625 Z M 107.917969 249.15625 "/></g></svg>