<svg xmlns="http://www.w3.org/2000/svg" xmlns:xlink="http://www.w3.org/1999/xlink" width="400" zoomAndPan="magnify" viewBox="0 0 300 299.999988" height="400" preserveAspectRatio="xMidYMid meet" version="1.2"><defs><clipPath id="2a08336ed1"><path d="M 66.15625 15.554688 L 234 15.554688 L 234 206 L 66.15625 206 Z M 66.15625 15.554688 "/></clipPath><clipPath id="f76ba4194e"><path d="M 116 221 L 179 221 L 179 284.804688 L 116 284.804688 Z M 116 221 "/></clipPath></defs><g id="b66244cb3f"><g clip-rule="nonzero" clip-path="url(#2a08336ed1)"><path style=" stroke:none;fill-rule:nonzero;fill:#ffffff;fill-opacity:1;" d="M 116.097656 82.921875 C 122.609375 69.953125 135.496094 61.898438 149.757812 61.898438 C 170.609375 61.898438 188.691406 78.886719 187.554688 99.695312 C 185.214844 142.390625 131.742188 142.5625 131.742188 142.5625 L 121.589844 142.5625 L 121.589844 205.554688 L 167.773438 205.554688 L 167.773438 181.625 C 205.4375 173.339844 233.753906 139.808594 233.753906 99.695312 C 233.753906 53.367188 196.070312 15.691406 149.757812 15.691406 C 112.195312 15.691406 78.9375 41.015625 68.886719 77.285156 L 66.113281 87.269531 L 113.910156 87.269531 L 116.097656 82.921875 "/></g><g clip-rule="nonzero" clip-path="url(#f76ba4194e)"><path style=" stroke:none;fill-rule:nonzero;fill:#ffffff;fill-opacity:1;" d="M 147.484375 221.304688 C 130.113281 221.304688 116 235.433594 116 252.800781 C 116 270.171875 130.113281 284.300781 147.484375 284.300781 C 164.851562 284.300781 178.980469 270.171875 178.980469 252.800781 C 178.980469 235.433594 164.851562 221.304688 147.484375 221.304688 "/></g></g></svg>